<?xml version="1.0" encoding="UTF-8"?>
<svg id="Layer_2" data-name="Layer 2" xmlns="http://www.w3.org/2000/svg" viewBox="0 0 954.36 102.11">
  <defs>
    <style>
      .cls-1 {
        fill: #010101;
      }

      .cls-1, .cls-2, .cls-3 {
        stroke-width: 0px;
      }

      .cls-2 {
        fill: #00909f;
      }

      .cls-3 {
        fill: #00b9c3;
      }
    </style>
  </defs>
  <g id="Layer_1-2" data-name="Layer 1">
    <g>
      <g>
        <path class="cls-1" d="M8.98,13.98v9.17h24.58v36.56c0,7.32-4.85,13.93-14.5,13.93-5.47,0-10.93-3.04-13.55-9.08l-5.51,9.32c3.9,5.28,10.27,9.17,19.06,9.17,16.07,0,24.39-10.36,24.39-23.34V13.98H8.98Z"/>
        <path class="cls-1" d="M100.4,73.83c-1.57,0-2.52-.57-2.52-2.33v-21.39c0-9.98-7.18-19.35-21.2-19.35-10.36,0-17.83,5.61-19.97,14.4l8.6,2.42c.71-4.04,4.28-8.41,11.36-8.41s11.69,4.85,11.69,10.93v1.38h-15.59c-10.93,0-18.21,6.27-18.21,15.59s7.37,15.97,17.83,15.97c8.13,0,13.64-4.18,15.02-10.55h1.95v2.04c0,4.14,2.61,7.23,7.7,7.23h4.85v-7.94h-1.52ZM88.37,60.47c0,7.08-3.95,14.45-14.12,14.45-5.42,0-9.89-2.99-9.89-8.03,0-4.66,3.37-7.75,9.51-7.75h14.5v1.33Z"/>
        <path class="cls-1" d="M137.48,30.76c-7.65,0-12.69,4.85-14.21,10.17h-1.95v-8.94h-9.7v49.77h9.7v-29.05c0-7.37,5.04-12.79,12.5-12.79,6.46,0,11.6,4.85,11.6,11.74v30.09h9.7v-32.9c0-9.51-6.08-18.11-17.64-18.11Z"/>
        <path class="cls-1" d="M201.42,32v29.14c0,7.27-5.04,12.69-12.5,12.69-6.47,0-11.6-4.23-11.6-11.69v-30.14h-9.7v32.94c0,9.6,6.13,18.11,17.54,18.11,7.65,0,12.41-4.09,14.36-10.17h1.9v8.89h9.7V32h-9.7Z"/>
        <path class="cls-1" d="M267.87,73.83c-1.52,0-2.52-.57-2.52-2.33v-21.39c0-9.98-7.18-19.35-21.2-19.35-10.36,0-17.83,5.61-19.97,14.4l8.65,2.42c.67-4.04,4.23-8.41,11.31-8.41s11.69,4.85,11.69,10.93v1.38h-15.59c-10.93,0-18.21,6.27-18.21,15.59s7.37,15.97,17.83,15.97c8.13,0,13.69-4.18,15.02-10.55h1.95v2.04c0,4.14,2.61,7.23,7.75,7.23h4.85v-7.94h-1.57ZM255.84,60.47c0,7.08-3.95,14.45-14.12,14.45-5.42,0-9.89-2.99-9.89-8.03,0-4.66,3.42-7.75,9.51-7.75h14.5v1.33Z"/>
        <path class="cls-1" d="M290.74,42.55h-2.04v-10.55h-9.56v49.77h9.65v-25.05c0-8.03,4.75-15.21,14.83-15.21h3.28v-10.36c-10.03,0-14.69,6.56-16.16,11.41Z"/>
        <path class="cls-1" d="M348.21,32l-14.83,41.26h2.9l-14.64-41.26h-9.84v1.28l17.49,48.49h0l-7.27,19.11v1.24h10.27l25.96-68.83v-1.28h-10.03Z"/>
        <g>
          <path class="cls-1" d="M560.88,80.45l22.47-66.54h16.85l22.37,66.54v1.26h-10.07l-5.04-15.01h-31.57l-5.04,15.01h-9.98v-1.26ZM604.37,57.3l-11.72-34.87h-2.03l-11.62,34.87h25.37Z"/>
          <path class="cls-1" d="M626.85,56.92c0-15.01,9.59-26.25,22.76-26.25,8.43,0,14.33,4.55,16.37,10.17h1.94V9.07h9.59v72.64h-9.59v-8.91h-2.03c-1.94,6-7.84,10.17-16.27,10.17-13.27,0-22.76-11.14-22.76-26.05ZM652.61,74.16c9.3,0,15.69-7.55,15.69-17.24,0-11.04-7.26-17.43-15.88-17.43s-15.69,7.07-15.69,17.43,6.78,17.24,15.88,17.24Z"/>
          <path class="cls-1" d="M684.88,33.19v-1.26h9.98l13.95,41.26h2.03l13.46-41.26h10.17v1.26l-16.85,48.52h-15.88l-16.85-48.52Z"/>
          <path class="cls-1" d="M743.19,11.78h9.78v11.43h-9.78v-11.43ZM743.29,31.93h9.68v49.78h-9.68V31.93Z"/>
          <path class="cls-1" d="M763.92,67.86l8.81-2.32c1.36,6.1,6.49,9.01,12.59,9.01,7.36,0,11.14-3,11.14-6.88,0-3.29-2.23-5.33-7.07-6.39l-8.62-1.84c-7.17-1.55-13.75-5.23-13.75-14.24,0-8.04,7.17-14.53,18.98-14.53,10.17,0,17.82,5.52,19.76,14.33l-8.62,2.32c-.87-5.04-5.23-8.43-11.14-8.43s-9.68,2.81-9.68,6.3c0,3.29,2.42,5.13,7.07,6.1l8.43,1.84c8.52,1.84,14.04,6.3,14.04,14.53,0,9.2-8.14,15.3-20.82,15.3-11.53,0-18.98-6.1-21.11-15.11Z"/>
          <path class="cls-1" d="M814.59,56.82c0-15.21,11.04-26.15,26.25-26.15s26.25,10.94,26.25,26.15-11.33,26.15-26.25,26.15-26.25-10.85-26.25-26.15ZM840.83,74.16c9.39,0,16.37-6.88,16.37-17.34s-6.97-17.34-16.37-17.34-16.37,7.17-16.37,17.34,6.97,17.34,16.37,17.34Z"/>
          <path class="cls-1" d="M877.55,31.93h9.59v10.56h2.03c1.45-4.84,6.1-11.43,16.17-11.43v10.36h-3.29c-10.07,0-14.82,7.17-14.82,15.21v25.08h-9.68V31.93Z"/>
          <path class="cls-1" d="M912.43,67.86l8.81-2.32c1.36,6.1,6.49,9.01,12.59,9.01,7.36,0,11.14-3,11.14-6.88,0-3.29-2.23-5.33-7.07-6.39l-8.62-1.84c-7.17-1.55-13.75-5.23-13.75-14.24,0-8.04,7.17-14.53,18.98-14.53,10.17,0,17.82,5.52,19.76,14.33l-8.62,2.32c-.87-5.04-5.23-8.43-11.14-8.43s-9.68,2.81-9.68,6.3c0,3.29,2.42,5.13,7.07,6.1l8.43,1.84c8.52,1.84,14.04,6.3,14.04,14.53,0,9.2-8.14,15.3-20.82,15.3-11.53,0-18.98-6.1-21.11-15.11Z"/>
        </g>
      </g>
      <path class="cls-2" d="M481.21,2.32c-.04,1.83-.14,3.66-.28,5.48-.06.72-.46,1.36-1.07,1.74-6.91,4.28-13.3,9.35-19.11,15.18-9.9,9.88-17.65,21.47-23.01,34.41-3.56,8.6-5.95,17.52-7.15,26.65-.09.71-.51,1.35-1.14,1.69-13.9,7.62-29.53,11.87-45.62,12.24-1.27.03-2.32-.99-2.32-2.26v-34.52c0-1.22.96-2.21,2.18-2.25,15.31-.55,29.86-6.87,40.76-17.73h0c1.42-1.43.41-3.86-1.6-3.86h-39.08c-1.25,0-2.26-1.01-2.26-2.26V2.26C381.5,1.01,382.51,0,383.76,0h95.19c1.27,0,2.29,1.05,2.26,2.32Z"/>
      <path class="cls-3" d="M535.78,2.28v95.21c0,1.24-1.01,2.25-2.25,2.25h-34.58c-1.24,0-2.25-1.01-2.25-2.25v-39.11c0-1.99-2.41-3.02-3.82-1.61-.01.01-.02.02-.04.04-10.86,10.9-17.19,25.46-17.74,40.77-.04,1.21-1.03,2.17-2.24,2.17h-34.54c-1.27,0-2.28-1.04-2.25-2.31.05-2.22.18-4.44.38-6.63.12-1.35.27-2.69.45-4.03.18-1.42.4-2.84.65-4.25,3.51-20.05,13.1-38.71,27.72-53.3,4.47-4.48,9.32-8.49,14.48-11.99,1.19-.81,2.4-1.59,3.62-2.35,1.15-.71,2.3-1.39,3.48-2.06,14.15-7.97,30.15-12.41,46.63-12.79,1.27-.03,2.31.99,2.31,2.25Z"/>
    </g>
  </g>
</svg>